<svg xmlns="http://www.w3.org/2000/svg" xmlns:xlink="http://www.w3.org/1999/xlink" width="500" zoomAndPan="magnify" viewBox="0 0 375 374.999991" height="500" preserveAspectRatio="xMidYMid meet" version="1.0"><defs><g/><clipPath id="3c8da50f3a"><path d="M 135 94 L 241.292969 94 L 241.292969 217.996094 L 135 217.996094 Z M 135 94 " clip-rule="nonzero"/></clipPath></defs><g clip-path="url(#3c8da50f3a)"><path fill="#00bab3" d="M 163.226562 178.910156 C 162.667969 176.515625 164.003906 174.074219 166.339844 173.277344 L 173.78125 170.664062 L 172.445312 166.917969 C 169.332031 158.140625 173.976562 148.46875 182.804688 145.371094 C 191.632812 142.277344 201.359375 146.894531 204.472656 155.671875 L 205.808594 159.421875 L 213.253906 156.808594 C 215.585938 155.988281 218.164062 157.050781 219.234375 159.253906 L 236.453125 194.457031 L 241.121094 136.570312 C 241.390625 133.210938 239.078125 130.1875 235.773438 129.535156 L 225.191406 127.480469 L 226.238281 122.136719 C 228.695312 109.609375 220.476562 97.449219 207.878906 94.984375 C 195.28125 92.539062 183.046875 100.714844 180.566406 113.238281 L 179.519531 118.582031 L 168.941406 116.527344 C 165.609375 115.875 162.328125 117.808594 161.304688 121.023438 L 135.332031 202.628906 C 134.089844 206.523438 136.546875 210.632812 140.585938 211.433594 L 172.175781 217.597656 Z M 223.296875 137.175781 C 222.980469 138.773438 221.421875 139.8125 219.816406 139.496094 C 218.214844 139.183594 217.167969 137.636719 217.484375 136.039062 C 217.800781 134.445312 219.355469 133.402344 220.960938 133.71875 C 222.542969 134.03125 223.613281 135.582031 223.296875 137.175781 Z M 186.425781 114.398438 C 188.277344 105.089844 197.371094 98.996094 206.757812 100.808594 C 216.144531 102.625 222.25 111.691406 220.425781 121.023438 L 219.378906 126.367188 L 185.382812 119.742188 Z M 181.125 125.957031 C 182.730469 126.269531 183.777344 127.820312 183.460938 129.414062 C 183.144531 131.011719 181.585938 132.050781 179.984375 131.734375 C 178.378906 131.421875 177.332031 129.875 177.648438 128.277344 C 177.941406 126.683594 179.496094 125.640625 181.125 125.957031 Z M 181.125 125.957031 " fill-opacity="1" fill-rule="nonzero"/></g><path fill="#00bab3" d="M 200.386719 157.101562 C 198.078125 150.570312 190.828125 147.113281 184.238281 149.433594 C 177.671875 151.730469 174.195312 158.9375 176.527344 165.492188 L 177.867188 169.238281 L 201.722656 160.871094 Z M 200.386719 157.101562 " fill-opacity="1" fill-rule="nonzero"/><path fill="#00bab3" d="M 177.503906 174.726562 C 176.382812 175.113281 175.773438 176.347656 176.1875 177.484375 C 176.578125 178.597656 177.816406 179.199219 178.960938 178.789062 C 180.078125 178.402344 180.6875 177.167969 180.273438 176.03125 C 179.886719 174.921875 178.644531 174.316406 177.503906 174.726562 Z M 177.503906 174.726562 " fill-opacity="1" fill-rule="nonzero"/><path fill="#00bab3" d="M 206.90625 168.972656 C 208.023438 168.585938 208.632812 167.351562 208.21875 166.214844 C 207.828125 165.105469 206.589844 164.5 205.445312 164.910156 C 204.300781 165.320312 203.71875 166.53125 204.132812 167.667969 C 204.546875 168.777344 205.785156 169.382812 206.90625 168.972656 Z M 206.90625 168.972656 " fill-opacity="1" fill-rule="nonzero"/><g fill="#00bab3" fill-opacity="1"><g transform="translate(175.297039, 205.860341)"><g><path d="M 12.109375 -4.578125 L 9.453125 -8.03125 L 3.46875 -5.78125 L 3.75 -1.421875 L 0 0 L -0.453125 -18.671875 L 3.8125 -20.28125 L 15.859375 -6 Z M 7.5 -10.640625 C 5.070312 -13.753906 3.695312 -15.519531 3.375 -15.9375 C 3.0625 -16.351562 2.828125 -16.679688 2.671875 -16.921875 C 2.796875 -15.878906 2.984375 -13.25 3.234375 -9.03125 Z M 7.5 -10.640625 "/></g></g></g><g fill="#00bab3" fill-opacity="1"><g transform="translate(191.158557, 199.862247)"><g><path d="M 13.03125 -4.921875 L 9.609375 -3.625 L 6.828125 -10.96875 C 6.492188 -11.863281 6.085938 -12.476562 5.609375 -12.8125 C 5.140625 -13.15625 4.578125 -13.207031 3.921875 -12.96875 C 3.054688 -12.632812 2.546875 -12.066406 2.390625 -11.265625 C 2.234375 -10.472656 2.429688 -9.34375 2.984375 -7.875 L 5.21875 -1.96875 L 1.796875 -0.6875 L -2.953125 -13.234375 L -0.34375 -14.21875 L 0.71875 -12.796875 L 0.921875 -12.859375 C 1.035156 -13.566406 1.351562 -14.203125 1.875 -14.765625 C 2.394531 -15.328125 3.0625 -15.765625 3.875 -16.078125 C 5.757812 -16.785156 7.265625 -16.65625 8.390625 -15.6875 L 8.6875 -15.8125 C 8.800781 -16.519531 9.125 -17.15625 9.65625 -17.71875 C 10.195312 -18.28125 10.878906 -18.71875 11.703125 -19.03125 C 13.117188 -19.570312 14.332031 -19.613281 15.34375 -19.15625 C 16.351562 -18.707031 17.160156 -17.679688 17.765625 -16.078125 L 20.859375 -7.890625 L 17.421875 -6.59375 L 14.640625 -13.9375 C 14.304688 -14.832031 13.898438 -15.445312 13.421875 -15.78125 C 12.953125 -16.125 12.390625 -16.171875 11.734375 -15.921875 C 10.898438 -15.609375 10.382812 -15.070312 10.1875 -14.3125 C 10 -13.550781 10.15625 -12.519531 10.65625 -11.21875 Z M 13.03125 -4.921875 "/></g></g></g><g fill="#00bab3" fill-opacity="1"><g transform="translate(213.732876, 191.325683)"><g><path d="M 4.78125 -1.8125 L -4.75 -12.546875 L -1.171875 -13.90625 L 3.953125 -7.65625 C 4.578125 -6.863281 5.066406 -6.070312 5.421875 -5.28125 L 5.5 -5.3125 C 5.28125 -6.050781 5.128906 -6.972656 5.046875 -8.078125 L 4.75 -16.140625 L 8.328125 -17.5 L 8.296875 -3.140625 Z M 4.78125 -1.8125 "/></g></g></g></svg>