<svg xmlns="http://www.w3.org/2000/svg" xmlns:xlink="http://www.w3.org/1999/xlink" width="500" zoomAndPan="magnify" viewBox="0 0 375 374.999991" height="500" preserveAspectRatio="xMidYMid meet" version="1.0"><defs><g/><clipPath id="307b3a626f"><path d="M 135 94 L 241.292969 94 L 241.292969 217.996094 L 135 217.996094 Z M 135 94 " clip-rule="nonzero"/></clipPath></defs><g clip-path="url(#307b3a626f)"><path fill="#00bab3" d="M 163.226562 178.910156 C 162.667969 176.515625 164.003906 174.074219 166.339844 173.277344 L 173.78125 170.664062 L 172.445312 166.917969 C 169.332031 158.140625 173.976562 148.46875 182.804688 145.371094 C 191.632812 142.277344 201.359375 146.894531 204.472656 155.671875 L 205.808594 159.421875 L 213.253906 156.808594 C 215.585938 155.988281 218.164062 157.050781 219.234375 159.253906 L 236.453125 194.457031 L 241.121094 136.570312 C 241.390625 133.210938 239.078125 130.1875 235.773438 129.535156 L 225.191406 127.480469 L 226.238281 122.136719 C 228.695312 109.609375 220.476562 97.449219 207.878906 94.984375 C 195.28125 92.539062 183.046875 100.714844 180.566406 113.238281 L 179.519531 118.582031 L 168.941406 116.527344 C 165.609375 115.875 162.328125 117.808594 161.304688 121.023438 L 135.332031 202.628906 C 134.089844 206.523438 136.546875 210.632812 140.585938 211.433594 L 172.175781 217.597656 Z M 223.296875 137.175781 C 222.980469 138.773438 221.421875 139.8125 219.816406 139.496094 C 218.214844 139.183594 217.167969 137.636719 217.484375 136.039062 C 217.800781 134.445312 219.355469 133.402344 220.960938 133.71875 C 222.542969 134.03125 223.613281 135.582031 223.296875 137.175781 Z M 186.425781 114.398438 C 188.277344 105.089844 197.371094 98.996094 206.757812 100.808594 C 216.144531 102.625 222.25 111.691406 220.425781 121.023438 L 219.378906 126.367188 L 185.382812 119.742188 Z M 181.125 125.957031 C 182.730469 126.269531 183.777344 127.820312 183.460938 129.414062 C 183.144531 131.011719 181.585938 132.050781 179.984375 131.734375 C 178.378906 131.421875 177.332031 129.875 177.648438 128.277344 C 177.941406 126.683594 179.496094 125.640625 181.125 125.957031 Z M 181.125 125.957031 " fill-opacity="1" fill-rule="nonzero"/></g><path fill="#00bab3" d="M 200.386719 157.101562 C 198.078125 150.570312 190.828125 147.113281 184.238281 149.433594 C 177.671875 151.730469 174.195312 158.9375 176.527344 165.492188 L 177.867188 169.238281 L 201.722656 160.871094 Z M 200.386719 157.101562 " fill-opacity="1" fill-rule="nonzero"/><path fill="#00bab3" d="M 177.503906 174.726562 C 176.382812 175.113281 175.773438 176.347656 176.1875 177.484375 C 176.578125 178.597656 177.816406 179.199219 178.960938 178.789062 C 180.078125 178.402344 180.6875 177.167969 180.273438 176.03125 C 179.886719 174.921875 178.644531 174.316406 177.503906 174.726562 Z M 177.503906 174.726562 " fill-opacity="1" fill-rule="nonzero"/><path fill="#00bab3" d="M 206.90625 168.972656 C 208.023438 168.585938 208.632812 167.351562 208.21875 166.214844 C 207.828125 165.105469 206.589844 164.5 205.445312 164.910156 C 204.300781 165.320312 203.71875 166.53125 204.132812 167.667969 C 204.546875 168.777344 205.785156 169.382812 206.90625 168.972656 Z M 206.90625 168.972656 " fill-opacity="1" fill-rule="nonzero"/><g fill="#272424" fill-opacity="1"><g transform="translate(90.688101, 258.614925)"><g><path d="M 13.609375 0.4375 C 11.316406 0.4375 9.191406 -0.0703125 7.234375 -1.09375 C 5.285156 -2.125 3.734375 -3.578125 2.578125 -5.453125 C 1.421875 -7.335938 0.84375 -9.476562 0.84375 -11.875 C 0.84375 -14.269531 1.421875 -16.40625 2.578125 -18.28125 C 3.734375 -20.15625 5.285156 -21.609375 7.234375 -22.640625 C 9.191406 -23.671875 11.316406 -24.1875 13.609375 -24.1875 C 15.890625 -24.1875 18.003906 -23.671875 19.953125 -22.640625 C 21.910156 -21.609375 23.46875 -20.15625 24.625 -18.28125 C 25.78125 -16.40625 26.359375 -14.269531 26.359375 -11.875 C 26.359375 -9.476562 25.78125 -7.335938 24.625 -5.453125 C 23.46875 -3.578125 21.910156 -2.125 19.953125 -1.09375 C 18.003906 -0.0703125 15.890625 0.4375 13.609375 0.4375 Z M 13.609375 -4.984375 C 14.867188 -4.984375 16.015625 -5.273438 17.046875 -5.859375 C 18.078125 -6.453125 18.878906 -7.269531 19.453125 -8.3125 C 20.023438 -9.351562 20.3125 -10.539062 20.3125 -11.875 C 20.3125 -13.207031 20.023438 -14.394531 19.453125 -15.4375 C 18.878906 -16.476562 18.078125 -17.289062 17.046875 -17.875 C 16.015625 -18.46875 14.867188 -18.765625 13.609375 -18.765625 C 12.335938 -18.765625 11.1875 -18.46875 10.15625 -17.875 C 9.125 -17.289062 8.320312 -16.476562 7.75 -15.4375 C 7.175781 -14.394531 6.890625 -13.207031 6.890625 -11.875 C 6.890625 -10.539062 7.175781 -9.351562 7.75 -8.3125 C 8.320312 -7.269531 9.125 -6.453125 10.15625 -5.859375 C 11.1875 -5.273438 12.335938 -4.984375 13.609375 -4.984375 Z M 13.609375 -4.984375 "/></g></g></g><g fill="#272424" fill-opacity="1"><g transform="translate(117.208655, 258.614925)"><g><path d="M 12.171875 -18.078125 C 13.554688 -18.078125 14.785156 -17.753906 15.859375 -17.109375 C 16.929688 -16.460938 17.769531 -15.570312 18.375 -14.4375 C 18.988281 -13.3125 19.296875 -12.023438 19.296875 -10.578125 L 19.296875 0 L 13.640625 0 L 13.640625 -9.359375 C 13.640625 -10.472656 13.375 -11.351562 12.84375 -12 C 12.3125 -12.65625 11.554688 -12.984375 10.578125 -12.984375 C 9.628906 -12.984375 8.851562 -12.648438 8.25 -11.984375 C 7.65625 -11.316406 7.359375 -10.441406 7.359375 -9.359375 L 7.359375 0 L 1.703125 0 L 1.703125 -17.640625 L 6.953125 -17.640625 L 6.953125 -15.9375 C 8.359375 -17.363281 10.097656 -18.078125 12.171875 -18.078125 Z M 12.171875 -18.078125 "/></g></g></g><g fill="#272424" fill-opacity="1"><g transform="translate(137.353374, 258.614925)"><g><path d="M 7.53125 0 L 1.859375 0 L 1.859375 -24.421875 L 7.53125 -24.421875 Z M 7.53125 0 "/></g></g></g><g fill="#272424" fill-opacity="1"><g transform="translate(146.069073, 258.614925)"><g><path d="M 7.359375 0 L 1.703125 0 L 1.703125 -17.640625 L 7.359375 -17.640625 Z M 7.359375 -20.859375 L 1.6875 -20.859375 L 1.6875 -21.875 L 7.359375 -21.875 Z M 7.359375 -20.859375 "/></g></g></g><g fill="#272424" fill-opacity="1"><g transform="translate(154.445627, 258.614925)"><g><path d="M 12.171875 -18.078125 C 13.554688 -18.078125 14.785156 -17.753906 15.859375 -17.109375 C 16.929688 -16.460938 17.769531 -15.570312 18.375 -14.4375 C 18.988281 -13.3125 19.296875 -12.023438 19.296875 -10.578125 L 19.296875 0 L 13.640625 0 L 13.640625 -9.359375 C 13.640625 -10.472656 13.375 -11.351562 12.84375 -12 C 12.3125 -12.65625 11.554688 -12.984375 10.578125 -12.984375 C 9.628906 -12.984375 8.851562 -12.648438 8.25 -11.984375 C 7.65625 -11.316406 7.359375 -10.441406 7.359375 -9.359375 L 7.359375 0 L 1.703125 0 L 1.703125 -17.640625 L 6.953125 -17.640625 L 6.953125 -15.9375 C 8.359375 -17.363281 10.097656 -18.078125 12.171875 -18.078125 Z M 12.171875 -18.078125 "/></g></g></g><g fill="#272424" fill-opacity="1"><g transform="translate(174.590346, 258.614925)"><g><path d="M 10.109375 -18.078125 C 11.867188 -18.078125 13.476562 -17.65625 14.9375 -16.8125 C 16.394531 -15.976562 17.535156 -14.84375 18.359375 -13.40625 C 19.191406 -11.976562 19.570312 -10.394531 19.5 -8.65625 L 6.28125 -8.65625 C 6.300781 -7.289062 6.660156 -6.222656 7.359375 -5.453125 C 8.054688 -4.691406 8.992188 -4.3125 10.171875 -4.3125 C 10.941406 -4.3125 11.625 -4.476562 12.21875 -4.8125 C 12.820312 -5.15625 13.304688 -5.644531 13.671875 -6.28125 L 19.234375 -6.28125 C 18.554688 -4.125 17.441406 -2.460938 15.890625 -1.296875 C 14.335938 -0.140625 12.410156 0.4375 10.109375 0.4375 C 8.410156 0.4375 6.835938 0.0546875 5.390625 -0.703125 C 3.941406 -1.472656 2.78125 -2.5625 1.90625 -3.96875 C 1.039062 -5.375 0.609375 -6.988281 0.609375 -8.8125 C 0.609375 -10.644531 1.039062 -12.265625 1.90625 -13.671875 C 2.78125 -15.078125 3.941406 -16.160156 5.390625 -16.921875 C 6.835938 -17.691406 8.410156 -18.078125 10.109375 -18.078125 Z M 10.109375 -13.328125 C 9.023438 -13.328125 8.132812 -12.976562 7.4375 -12.28125 C 6.75 -11.582031 6.363281 -10.597656 6.28125 -9.328125 L 13.9375 -9.328125 C 13.875 -10.523438 13.507812 -11.488281 12.84375 -12.21875 C 12.175781 -12.957031 11.265625 -13.328125 10.109375 -13.328125 Z M 10.109375 -13.328125 "/></g></g></g><g fill="#272424" fill-opacity="1"><g transform="translate(194.022876, 258.614925)"><g/></g></g><g fill="#272424" fill-opacity="1"><g transform="translate(203.009887, 258.614925)"><g><path d="M 10.109375 0.4375 C 7.253906 0.4375 4.960938 -0.296875 3.234375 -1.765625 C 1.503906 -3.234375 0.617188 -5.359375 0.578125 -8.140625 L 6.4375 -8.140625 C 6.507812 -5.585938 7.722656 -4.3125 10.078125 -4.3125 C 11.085938 -4.3125 11.851562 -4.515625 12.375 -4.921875 C 12.894531 -5.328125 13.15625 -5.878906 13.15625 -6.578125 C 13.15625 -7.117188 12.96875 -7.578125 12.59375 -7.953125 C 12.226562 -8.328125 11.765625 -8.632812 11.203125 -8.875 C 10.648438 -9.113281 9.84375 -9.410156 8.78125 -9.765625 C 7.195312 -10.285156 5.90625 -10.796875 4.90625 -11.296875 C 3.914062 -11.796875 3.050781 -12.539062 2.3125 -13.53125 C 1.582031 -14.53125 1.21875 -15.820312 1.21875 -17.40625 C 1.21875 -18.71875 1.582031 -19.882812 2.3125 -20.90625 C 3.050781 -21.9375 4.082031 -22.738281 5.40625 -23.3125 C 6.726562 -23.894531 8.238281 -24.1875 9.9375 -24.1875 C 11.476562 -24.1875 12.921875 -23.894531 14.265625 -23.3125 C 15.609375 -22.738281 16.703125 -21.847656 17.546875 -20.640625 C 18.398438 -19.429688 18.835938 -17.921875 18.859375 -16.109375 L 13.09375 -16.109375 C 13.070312 -17.128906 12.800781 -17.9375 12.28125 -18.53125 C 11.757812 -19.132812 10.976562 -19.4375 9.9375 -19.4375 C 9.101562 -19.4375 8.445312 -19.238281 7.96875 -18.84375 C 7.5 -18.445312 7.265625 -17.921875 7.265625 -17.265625 C 7.265625 -16.492188 7.609375 -15.90625 8.296875 -15.5 C 8.984375 -15.09375 10.070312 -14.648438 11.5625 -14.171875 C 13.144531 -13.660156 14.445312 -13.148438 15.46875 -12.640625 C 16.488281 -12.128906 17.363281 -11.367188 18.09375 -10.359375 C 18.832031 -9.359375 19.203125 -8.050781 19.203125 -6.4375 C 19.203125 -5.175781 18.84375 -4.023438 18.125 -2.984375 C 17.414062 -1.941406 16.375 -1.109375 15 -0.484375 C 13.632812 0.128906 12.003906 0.4375 10.109375 0.4375 Z M 10.109375 0.4375 "/></g></g></g><g fill="#272424" fill-opacity="1"><g transform="translate(222.103277, 258.614925)"><g><path d="M 12.34375 -18.078125 C 13.726562 -18.078125 14.957031 -17.753906 16.03125 -17.109375 C 17.101562 -16.460938 17.941406 -15.570312 18.546875 -14.4375 C 19.160156 -13.3125 19.46875 -12.023438 19.46875 -10.578125 L 19.46875 0 L 13.8125 0 L 13.8125 -9.359375 C 13.8125 -10.472656 13.546875 -11.351562 13.015625 -12 C 12.484375 -12.65625 11.726562 -12.984375 10.75 -12.984375 C 9.800781 -12.984375 9.023438 -12.648438 8.421875 -11.984375 C 7.828125 -11.316406 7.53125 -10.441406 7.53125 -9.359375 L 7.53125 0 L 1.859375 0 L 1.859375 -24.421875 L 7.53125 -24.421875 L 7.53125 -16.3125 C 8.863281 -17.488281 10.46875 -18.078125 12.34375 -18.078125 Z M 12.34375 -18.078125 "/></g></g></g><g fill="#272424" fill-opacity="1"><g transform="translate(242.417569, 258.614925)"><g><path d="M 10.375 0.4375 C 8.707031 0.4375 7.117188 0.0625 5.609375 -0.6875 C 4.109375 -1.445312 2.898438 -2.523438 1.984375 -3.921875 C 1.066406 -5.328125 0.609375 -6.957031 0.609375 -8.8125 C 0.609375 -10.664062 1.066406 -12.296875 1.984375 -13.703125 C 2.898438 -15.109375 4.109375 -16.1875 5.609375 -16.9375 C 7.117188 -17.695312 8.707031 -18.078125 10.375 -18.078125 C 12.050781 -18.078125 13.640625 -17.695312 15.140625 -16.9375 C 16.648438 -16.1875 17.863281 -15.109375 18.78125 -13.703125 C 19.695312 -12.296875 20.15625 -10.664062 20.15625 -8.8125 C 20.15625 -6.957031 19.695312 -5.328125 18.78125 -3.921875 C 17.863281 -2.523438 16.648438 -1.445312 15.140625 -0.6875 C 13.640625 0.0625 12.050781 0.4375 10.375 0.4375 Z M 10.375 -4.640625 C 11.550781 -4.640625 12.53125 -5.035156 13.3125 -5.828125 C 14.09375 -6.617188 14.484375 -7.613281 14.484375 -8.8125 C 14.484375 -10.019531 14.09375 -11.015625 13.3125 -11.796875 C 12.53125 -12.585938 11.550781 -12.984375 10.375 -12.984375 C 9.195312 -12.984375 8.21875 -12.585938 7.4375 -11.796875 C 6.664062 -11.015625 6.28125 -10.019531 6.28125 -8.8125 C 6.28125 -7.613281 6.664062 -6.617188 7.4375 -5.828125 C 8.21875 -5.035156 9.195312 -4.640625 10.375 -4.640625 Z M 10.375 -4.640625 "/></g></g></g><g fill="#272424" fill-opacity="1"><g transform="translate(262.494464, 258.614925)"><g><path d="M 12.375 -18.078125 C 13.875 -18.078125 15.300781 -17.695312 16.65625 -16.9375 C 18.007812 -16.1875 19.101562 -15.101562 19.9375 -13.6875 C 20.78125 -12.269531 21.203125 -10.644531 21.203125 -8.8125 C 21.203125 -6.988281 20.78125 -5.367188 19.9375 -3.953125 C 19.101562 -2.535156 18.007812 -1.445312 16.65625 -0.6875 C 15.300781 0.0625 13.875 0.4375 12.375 0.4375 C 10.34375 0.4375 8.671875 -0.148438 7.359375 -1.328125 L 7.359375 6.78125 L 1.703125 6.78125 L 1.703125 -17.640625 L 6.953125 -17.640625 L 6.953125 -15.90625 C 8.285156 -17.351562 10.09375 -18.078125 12.375 -18.078125 Z M 11.328125 -4.640625 C 12.546875 -4.640625 13.550781 -5.035156 14.34375 -5.828125 C 15.132812 -6.617188 15.53125 -7.613281 15.53125 -8.8125 C 15.53125 -10.019531 15.132812 -11.015625 14.34375 -11.796875 C 13.550781 -12.585938 12.546875 -12.984375 11.328125 -12.984375 C 10.109375 -12.984375 9.101562 -12.585938 8.3125 -11.796875 C 7.519531 -11.015625 7.125 -10.019531 7.125 -8.8125 C 7.125 -7.613281 7.519531 -6.617188 8.3125 -5.828125 C 9.101562 -5.035156 10.109375 -4.640625 11.328125 -4.640625 Z M 11.328125 -4.640625 "/></g></g></g><g fill="#272424" fill-opacity="1"><g transform="translate(126.623887, 278.837031)"><g><path d="M 5.1875 -8.9375 L 8.796875 0 L 6.609375 0 L 5.9375 -1.78125 L 2.546875 -1.78125 L 1.890625 0 L -0.296875 0 L 3.296875 -8.9375 Z M 5.25 -3.578125 L 4.25 -6.171875 L 4.234375 -6.171875 L 3.234375 -3.578125 Z M 5.25 -3.578125 "/></g></g></g><g fill="#272424" fill-opacity="1"><g transform="translate(140.704632, 278.837031)"><g><path d="M 0.65625 0 L 0.65625 -5.5625 L 2.5625 -5.5625 L 2.5625 -4.96875 L 2.59375 -4.96875 C 3.082031 -5.46875 3.609375 -5.71875 4.171875 -5.71875 C 4.453125 -5.71875 4.726562 -5.679688 5 -5.609375 C 5.269531 -5.535156 5.53125 -5.421875 5.78125 -5.265625 C 6.03125 -5.117188 6.226562 -4.90625 6.375 -4.625 C 6.53125 -4.351562 6.609375 -4.03125 6.609375 -3.65625 L 6.609375 0 L 4.703125 0 L 4.703125 -3.140625 C 4.703125 -3.429688 4.609375 -3.679688 4.421875 -3.890625 C 4.234375 -4.109375 3.992188 -4.21875 3.703125 -4.21875 C 3.410156 -4.21875 3.144531 -4.101562 2.90625 -3.875 C 2.675781 -3.65625 2.5625 -3.410156 2.5625 -3.140625 L 2.5625 0 Z M 0.65625 0 "/></g></g></g><g fill="#272424" fill-opacity="1"><g transform="translate(153.453526, 278.837031)"><g><path d="M 0.828125 -8.640625 C 1.054688 -8.867188 1.320312 -8.984375 1.625 -8.984375 C 1.9375 -8.984375 2.203125 -8.867188 2.421875 -8.640625 C 2.648438 -8.421875 2.765625 -8.15625 2.765625 -7.84375 C 2.765625 -7.539062 2.648438 -7.273438 2.421875 -7.046875 C 2.203125 -6.828125 1.9375 -6.71875 1.625 -6.71875 C 1.320312 -6.71875 1.054688 -6.828125 0.828125 -7.046875 C 0.609375 -7.273438 0.5 -7.539062 0.5 -7.84375 C 0.5 -8.15625 0.609375 -8.421875 0.828125 -8.640625 Z M 0.65625 -5.5625 L 0.65625 0 L 2.5625 0 L 2.5625 -5.5625 Z M 0.65625 -5.5625 "/></g></g></g><g fill="#272424" fill-opacity="1"><g transform="translate(162.315135, 278.837031)"><g><path d="M 0.65625 0 L 0.65625 -5.5625 L 2.5625 -5.5625 L 2.5625 -4.96875 L 2.59375 -4.96875 C 3.082031 -5.46875 3.609375 -5.71875 4.171875 -5.71875 C 4.578125 -5.71875 4.957031 -5.632812 5.3125 -5.46875 C 5.664062 -5.300781 5.9375 -5.046875 6.125 -4.703125 C 6.6875 -5.378906 7.296875 -5.71875 7.953125 -5.71875 C 8.546875 -5.71875 9.054688 -5.550781 9.484375 -5.21875 C 9.910156 -4.882812 10.125 -4.363281 10.125 -3.65625 L 10.125 0 L 8.203125 0 L 8.203125 -3.140625 C 8.203125 -3.429688 8.117188 -3.675781 7.953125 -3.875 C 7.796875 -4.070312 7.554688 -4.171875 7.234375 -4.171875 C 6.953125 -4.171875 6.734375 -4.085938 6.578125 -3.921875 C 6.429688 -3.753906 6.351562 -3.550781 6.34375 -3.3125 L 6.34375 0 L 4.421875 0 L 4.421875 -3.140625 C 4.421875 -3.429688 4.335938 -3.675781 4.171875 -3.875 C 4.015625 -4.070312 3.773438 -4.171875 3.453125 -4.171875 C 3.160156 -4.171875 2.9375 -4.078125 2.78125 -3.890625 C 2.632812 -3.710938 2.5625 -3.5 2.5625 -3.25 L 2.5625 0 Z M 0.65625 0 "/></g></g></g><g fill="#272424" fill-opacity="1"><g transform="translate(178.572319, 278.837031)"><g><path d="M 6.265625 -2.515625 L 2.234375 -2.515625 C 2.234375 -2.117188 2.359375 -1.828125 2.609375 -1.640625 C 2.867188 -1.453125 3.144531 -1.359375 3.4375 -1.359375 C 3.75 -1.359375 3.992188 -1.398438 4.171875 -1.484375 C 4.359375 -1.566406 4.566406 -1.734375 4.796875 -1.984375 L 6.1875 -1.28125 C 5.601562 -0.320312 4.640625 0.15625 3.296875 0.15625 C 2.460938 0.15625 1.742188 -0.128906 1.140625 -0.703125 C 0.546875 -1.273438 0.25 -1.960938 0.25 -2.765625 C 0.25 -3.578125 0.546875 -4.269531 1.140625 -4.84375 C 1.742188 -5.425781 2.460938 -5.71875 3.296875 -5.71875 C 4.179688 -5.71875 4.898438 -5.460938 5.453125 -4.953125 C 6.003906 -4.441406 6.28125 -3.710938 6.28125 -2.765625 C 6.28125 -2.640625 6.273438 -2.554688 6.265625 -2.515625 Z M 2.296875 -3.578125 L 4.40625 -3.578125 C 4.363281 -3.859375 4.25 -4.078125 4.0625 -4.234375 C 3.882812 -4.390625 3.648438 -4.46875 3.359375 -4.46875 C 3.035156 -4.46875 2.78125 -4.382812 2.59375 -4.21875 C 2.40625 -4.050781 2.304688 -3.835938 2.296875 -3.578125 Z M 2.296875 -3.578125 "/></g></g></g><g fill="#272424" fill-opacity="1"><g transform="translate(190.693185, 278.837031)"><g><path d="M 7.5 0 L 6.078125 -5.015625 L 4.640625 0 L 2.375 0 L -0.15625 -8.9375 L 2.09375 -8.9375 L 3.625 -2.796875 L 3.6875 -2.796875 L 5.3125 -8.9375 L 6.84375 -8.9375 L 8.46875 -2.796875 L 8.515625 -2.796875 L 10.046875 -8.9375 L 12.296875 -8.9375 L 9.75 0 Z M 7.5 0 "/></g></g></g><g fill="#272424" fill-opacity="1"><g transform="translate(208.422995, 278.837031)"><g><path d="M 1.171875 -0.65625 C 0.554688 -1.207031 0.25 -1.910156 0.25 -2.765625 C 0.25 -3.628906 0.566406 -4.335938 1.203125 -4.890625 C 1.847656 -5.441406 2.644531 -5.71875 3.59375 -5.71875 C 4.519531 -5.71875 5.300781 -5.4375 5.9375 -4.875 C 6.582031 -4.320312 6.90625 -3.617188 6.90625 -2.765625 C 6.90625 -1.921875 6.59375 -1.222656 5.96875 -0.671875 C 5.34375 -0.117188 4.550781 0.15625 3.59375 0.15625 C 2.59375 0.15625 1.785156 -0.113281 1.171875 -0.65625 Z M 2.65625 -3.703125 C 2.40625 -3.460938 2.28125 -3.148438 2.28125 -2.765625 C 2.28125 -2.390625 2.398438 -2.078125 2.640625 -1.828125 C 2.878906 -1.585938 3.191406 -1.46875 3.578125 -1.46875 C 3.953125 -1.46875 4.257812 -1.585938 4.5 -1.828125 C 4.75 -2.078125 4.875 -2.390625 4.875 -2.765625 C 4.875 -3.148438 4.75 -3.460938 4.5 -3.703125 C 4.25 -3.953125 3.941406 -4.078125 3.578125 -4.078125 C 3.210938 -4.078125 2.90625 -3.953125 2.65625 -3.703125 Z M 2.65625 -3.703125 "/></g></g></g><g fill="#272424" fill-opacity="1"><g transform="translate(221.17189, 278.837031)"><g><path d="M 0.65625 0 L 0.65625 -5.5625 L 2.5625 -5.5625 L 2.5625 -4.75 L 2.59375 -4.75 C 2.601562 -4.78125 2.625 -4.816406 2.65625 -4.859375 C 2.6875 -4.898438 2.753906 -4.972656 2.859375 -5.078125 C 2.972656 -5.191406 3.09375 -5.289062 3.21875 -5.375 C 3.34375 -5.46875 3.5 -5.546875 3.6875 -5.609375 C 3.882812 -5.679688 4.082031 -5.71875 4.28125 -5.71875 C 4.5 -5.71875 4.707031 -5.6875 4.90625 -5.625 C 5.101562 -5.570312 5.25 -5.515625 5.34375 -5.453125 L 5.5 -5.375 L 4.703125 -3.75 C 4.460938 -3.945312 4.128906 -4.046875 3.703125 -4.046875 C 3.472656 -4.046875 3.273438 -3.992188 3.109375 -3.890625 C 2.941406 -3.796875 2.820312 -3.675781 2.75 -3.53125 C 2.6875 -3.382812 2.640625 -3.257812 2.609375 -3.15625 C 2.578125 -3.0625 2.5625 -2.984375 2.5625 -2.921875 L 2.5625 0 Z M 0.65625 0 "/></g></g></g><g fill="#272424" fill-opacity="1"><g transform="translate(232.155802, 278.837031)"><g><path d="M 0.65625 0 L 0.65625 -9.3125 L 2.5625 -9.3125 L 2.5625 0 Z M 0.65625 0 "/></g></g></g><g fill="#272424" fill-opacity="1"><g transform="translate(240.963266, 278.837031)"><g><path d="M 1.03125 -0.6875 C 0.507812 -1.25 0.25 -1.941406 0.25 -2.765625 C 0.25 -3.585938 0.507812 -4.285156 1.03125 -4.859375 C 1.550781 -5.429688 2.210938 -5.71875 3.015625 -5.71875 C 3.742188 -5.71875 4.347656 -5.488281 4.828125 -5.03125 L 4.828125 -9.3125 L 6.75 -9.3125 L 6.75 0 L 4.84375 0 L 4.84375 -0.625 L 4.828125 -0.625 C 4.347656 -0.101562 3.742188 0.15625 3.015625 0.15625 C 2.210938 0.15625 1.550781 -0.125 1.03125 -0.6875 Z M 2.65625 -3.703125 C 2.40625 -3.460938 2.28125 -3.148438 2.28125 -2.765625 C 2.28125 -2.390625 2.398438 -2.078125 2.640625 -1.828125 C 2.878906 -1.585938 3.191406 -1.46875 3.578125 -1.46875 C 3.953125 -1.46875 4.257812 -1.585938 4.5 -1.828125 C 4.75 -2.078125 4.875 -2.390625 4.875 -2.765625 C 4.875 -3.148438 4.75 -3.460938 4.5 -3.703125 C 4.25 -3.953125 3.941406 -4.078125 3.578125 -4.078125 C 3.210938 -4.078125 2.90625 -3.953125 2.65625 -3.703125 Z M 2.65625 -3.703125 "/></g></g></g></svg>